<svg width="512" height="512" viewBox="0 0 512 512" fill="none" xmlns="http://www.w3.org/2000/svg">
<rect width="512" height="512" rx="100" fill="#009966"/>
<path d="M391.131 161.869C355.656 126.394 308.438 106.667 256 106.667C150.144 106.667 64 192.811 64 298.667C64 404.523 150.144 490.667 256 490.667C308.438 490.667 355.656 470.94 391.131 435.465L330.869 375.203C311.931 394.141 285.438 405.333 256 405.333C197.094 405.333 149.333 357.572 149.333 298.667C149.333 239.761 197.094 192 256 192C285.438 192 311.931 203.192 330.869 222.131L391.131 161.869Z" fill="white"/>
<circle cx="213.333" cy="298.667" r="42.6667" fill="white"/>
<circle cx="341.333" cy="298.667" r="42.6667" fill="white"/>
<circle cx="426.667" cy="85.3333" r="42.6667" fill="white"/>
<path d="M341.333 170.667L426.667 85.3333" stroke="white" stroke-width="21.3333"/>
</svg>
